# Blender 5.0.1
# www.blender.org
mtllib bed table.mtl
o Nightstand.002
v -5.863076 0.200000 0.200000
v -5.863076 0.550000 0.200000
v -5.863076 0.200000 -0.200000
v -5.863076 0.550000 -0.200000
v -5.363076 0.200000 0.200000
v -5.363076 0.550000 0.200000
v -5.363076 0.200000 -0.200000
v -5.363076 0.550000 -0.200000
v -5.810575 0.000000 0.167500
v -5.788075 0.200000 0.145000
v -5.810575 0.000000 0.132500
v -5.788076 0.200000 0.095000
v -5.775576 0.000000 0.167500
v -5.738076 0.200000 0.145000
v -5.775576 0.000000 0.132500
v -5.738076 0.200000 0.095000
v -5.415576 0.000000 0.167500
v -5.438076 0.200000 0.145000
v -5.415576 0.000000 0.132500
v -5.438076 0.200000 0.095000
v -5.450576 0.000000 0.167500
v -5.488076 0.200000 0.145000
v -5.450576 0.000000 0.132500
v -5.488076 0.200000 0.095000
v -5.810576 0.000000 -0.167500
v -5.788076 0.200000 -0.145000
v -5.810576 0.000000 -0.132500
v -5.788076 0.200000 -0.095000
v -5.775576 0.000000 -0.167500
v -5.738076 0.200000 -0.145000
v -5.775576 0.000000 -0.132500
v -5.738076 0.200000 -0.095000
v -5.415576 0.000000 -0.167500
v -5.438076 0.200000 -0.145000
v -5.415576 0.000000 -0.132500
v -5.438076 0.200000 -0.095000
v -5.450576 0.000000 -0.167500
v -5.488076 0.200000 -0.145000
v -5.450576 0.000000 -0.132500
v -5.488076 0.200000 -0.095000
v -5.620076 0.450653 0.200000
v -5.627076 0.450653 0.217749
v -5.616576 0.456715 0.200000
v -5.620076 0.462777 0.217749
v -5.609576 0.456715 0.200000
v -5.606076 0.462777 0.217749
v -5.606076 0.450653 0.200000
v -5.599076 0.450653 0.217749
v -5.609576 0.444591 0.200000
v -5.606076 0.438528 0.217749
v -5.616576 0.444591 0.200000
v -5.620076 0.438528 0.217749
v -5.620076 0.308194 0.200000
v -5.627076 0.308194 0.217749
v -5.616576 0.314256 0.200000
v -5.620076 0.320318 0.217749
v -5.609576 0.314256 0.200000
v -5.606076 0.320318 0.217749
v -5.606076 0.308194 0.200000
v -5.599076 0.308194 0.217749
v -5.609576 0.302131 0.200000
v -5.606076 0.296069 0.217749
v -5.616576 0.302131 0.200000
v -5.620076 0.296069 0.217749
v -5.873075 0.560000 0.208000
v -5.873076 0.560000 -0.208000
v -5.353076 0.560000 -0.208000
v -5.353076 0.560000 0.208000
v -5.873075 0.570000 0.208000
v -5.873076 0.570000 -0.208000
v -5.353076 0.570000 -0.208000
v -5.353076 0.570000 0.208000
vn -1.0000 -0.0000 -0.0000
vn -0.0000 -0.0000 -1.0000
vn 1.0000 -0.0000 -0.0000
vn -0.0000 -0.0000 1.0000
vn -0.0000 -1.0000 -0.0000
vn -0.0000 -0.6247 -0.7809
vn -0.9937 0.1118 -0.0000
vn -0.0000 -0.1843 -0.9829
vn 0.9829 -0.1843 -0.0000
vn -0.0000 0.1118 0.9937
vn 0.9937 0.1118 -0.0000
vn -0.9829 -0.1843 -0.0000
vn -0.0000 -0.1843 0.9829
vn -0.0000 0.1118 -0.9937
vn -0.8195 0.4732 -0.3232
vn -0.0000 0.9463 -0.3232
vn 0.8195 0.4732 -0.3232
vn 0.8195 -0.4732 -0.3232
vn -0.0000 -0.9463 -0.3232
vn -0.8195 -0.4732 -0.3232
vn 0.7071 -0.7071 -0.0000
vn -0.7071 -0.7071 -0.0000
vn -0.0000 -0.6247 0.7809
vn -0.0000 1.0000 -0.0000
vt 0.603281 0.979511
vt 0.603281 0.541016
vt 0.024190 0.541016
vt 0.024190 0.979511
vt 0.603016 0.959348
vt 0.603016 0.552626
vt 0.021984 0.552626
vt 0.021984 0.959348
vt 0.024411 0.501108
vt 0.024411 0.030202
vt 0.592276 0.030202
vt 0.592276 0.501108
vt 0.629000 0.060481
vt 0.629001 0.519230
vt 0.996000 0.519229
vt 0.996000 0.060481
vt 0.505247 0.292716
vt 0.127102 0.292716
vt 0.119540 0.300279
vt 0.512810 0.300279
vt 0.635002 0.582028
vt 0.674966 0.937271
vt 0.763777 0.937271
vt 0.697169 0.582028
vt 0.697169 0.582028
vt 0.763777 0.937271
vt 0.811497 0.975339
vt 0.811497 0.896629
vt 0.856582 0.896629
vt 0.856582 0.975339
vt 0.946753 0.896629
vt 0.946753 0.975339
vt 0.991839 0.896629
vt 0.991839 0.975339
vt 0.991839 0.873508
vt 0.991839 0.794798
vt 0.946753 0.794798
vt 0.946753 0.873508
vt 0.875848 0.734215
vt 0.846884 0.684047
vt 0.875848 0.633879
vt 0.933778 0.633879
vt 0.962742 0.684047
vt 0.933778 0.734215
vt 0.856582 0.794798
vt 0.856582 0.873508
vt 0.811497 0.794798
vt 0.811497 0.873508
vt 0.119540 0.307842
vt 0.512810 0.307842
vt 0.182666 0.292716
vt 0.485181 0.292716
vt 0.491232 0.300279
vt 0.176615 0.300279
vt 0.644180 0.506295
vt 0.644180 0.082861
vt 0.982927 0.082861
vt 0.982927 0.506295
vt 0.491232 0.307842
vt 0.176615 0.307842
s 0
usemtl Nightstand.001
f 1/1/1 2/2/1 4/3/1 3/4/1
f 3/5/2 4/6/2 8/7/2 7/8/2
f 7/4/3 8/3/3 6/2/3 5/1/3
f 5/9/4 6/10/4 2/11/4 1/12/4
f 3/13/5 7/14/5 5/15/5 1/16/5
f 8/17/6 4/18/6 66/19/6 67/20/6
f 9/21/7 10/22/7 12/23/7 11/24/7
f 11/21/8 12/22/8 16/23/8 15/24/8
f 15/24/9 16/23/9 14/22/9 13/21/9
f 13/25/10 14/26/10 10/22/10 9/21/10
f 11/21/5 15/24/5 13/25/5 9/21/5
f 17/21/11 19/24/11 20/26/11 18/22/11
f 19/21/8 23/24/8 24/23/8 20/22/8
f 23/24/12 21/21/12 22/22/12 24/23/12
f 21/25/10 17/21/10 18/22/10 22/26/10
f 19/21/5 17/21/5 21/25/5 23/24/5
f 25/21/7 27/24/7 28/23/7 26/22/7
f 27/21/13 31/24/13 32/23/13 28/22/13
f 31/25/9 29/21/9 30/22/9 32/23/9
f 29/25/14 25/21/14 26/22/14 30/26/14
f 27/21/5 25/21/5 29/25/5 31/24/5
f 33/21/11 34/22/11 36/23/11 35/25/11
f 35/21/13 36/22/13 40/23/13 39/24/13
f 39/24/12 40/23/12 38/22/12 37/21/12
f 37/25/14 38/26/14 34/22/14 33/21/14
f 35/21/5 39/24/5 37/25/5 33/21/5
f 41/27/15 42/28/15 44/29/15 43/30/15
f 43/30/16 44/29/16 46/31/16 45/32/16
f 45/32/17 46/31/17 48/33/17 47/34/17
f 47/35/18 48/36/18 50/37/18 49/38/18
f 44/39/4 42/40/4 52/41/4 50/42/4 48/43/4 46/44/4
f 49/38/19 50/37/19 52/45/19 51/46/19
f 51/46/20 52/45/20 42/47/20 41/48/20
f 53/27/15 54/28/15 56/29/15 55/30/15
f 55/30/16 56/29/16 58/31/16 57/32/16
f 57/32/17 58/31/17 60/33/17 59/34/17
f 59/35/18 60/36/18 62/37/18 61/38/18
f 56/39/4 54/40/4 64/41/4 62/42/4 60/43/4 58/44/4
f 61/38/19 62/37/19 64/45/19 63/46/19
f 63/46/20 64/45/20 54/47/20 53/48/20
f 67/20/2 66/19/2 70/49/2 71/50/2
f 6/51/21 8/52/21 67/53/21 68/54/21
f 4/52/22 2/51/22 65/54/22 66/53/22
f 2/18/23 6/17/23 68/20/23 65/19/23
f 71/55/24 70/56/24 69/57/24 72/58/24
f 68/54/3 67/53/3 71/59/3 72/60/3
f 66/53/1 65/54/1 69/60/1 70/59/1
f 65/19/4 68/20/4 72/50/4 69/49/4
